<?xml version="1.0" encoding="utf-8"?>
<!-- Generator: Adobe Illustrator 27.5.0, SVG Export Plug-In . SVG Version: 6.00 Build 0)  -->
<svg version="1.1" xmlns="http://www.w3.org/2000/svg" xmlns:xlink="http://www.w3.org/1999/xlink" x="0px" y="0px"
	 viewBox="0 0 500 500" style="enable-background:new 0 0 500 500;" xml:space="preserve">
<g id="BACKGROUND">
	<rect style="fill:#00CEFF;" width="500" height="500"/>
</g>
<g id="OBJECTS">
	<g>
		<g>
			<path style="fill:#556B8F;" d="M239.177,84.629L84.031,128.522c-7.039,1.992-11.17,9.381-9.178,16.42l80.477,284.455
				c1.992,7.04,9.381,11.17,16.42,9.178l155.146-43.893c7.039-1.992,11.17-9.381,9.178-16.42L255.597,93.807
				C253.605,86.767,246.216,82.637,239.177,84.629z"/>
			<path style="fill:#FFFFFF;" d="M249.894,81.597L94.748,125.49c-7.039,1.992-11.17,9.381-9.178,16.42l80.476,284.455
				c1.992,7.039,9.381,11.17,16.42,9.178l155.146-43.893c7.039-1.991,11.17-9.381,9.178-16.42L266.314,90.775
				C264.322,83.735,256.933,79.605,249.894,81.597z"/>
			<path style="fill:#0196BA;" d="M247.042,97.835l-22.936,6.489c-1.124,0.318-2.121,0.978-2.852,1.889l-9.967,12.421
				c-0.731,0.911-1.728,1.571-2.852,1.889l-57.982,16.404c-1.124,0.318-2.319,0.278-3.419-0.115l-14.997-5.359
				c-1.1-0.393-2.295-0.433-3.419-0.115l-22.936,6.489c-2.985,0.844-4.72,3.949-3.876,6.934l70.512,249.233
				c0.844,2.985,3.949,4.72,6.934,3.876l141.359-39.992c2.985-0.845,4.72-3.949,3.875-6.934l-70.512-249.234
				C253.132,98.726,250.027,96.991,247.042,97.835z"/>
			<path style="fill:#95C4F0;" d="M299.445,306.514l-129.07,36.516c-2.499,0.707-3.952,3.306-3.245,5.805l10.712,37.864
				c0.707,2.499,3.306,3.952,5.805,3.245l129.07-36.516c2.499-0.707,3.952-3.306,3.245-5.805l-10.712-37.864
				C304.542,307.26,301.943,305.807,299.445,306.514z"/>
			<g>
				<path style="fill:#C9D0D4;" d="M155.313,126.23c0.394,1.392-0.415,2.84-1.807,3.234c-1.392,0.394-2.84-0.415-3.234-1.807
					c-0.394-1.392,0.415-2.84,1.807-3.234C153.472,124.029,154.92,124.838,155.313,126.23z"/>
				<path style="fill:#C9D0D4;" d="M201.181,111.104l-41.92,11.86c-1.099,0.311-1.738,1.454-1.427,2.553
					c0.311,1.099,1.454,1.738,2.553,1.427l41.92-11.86c1.099-0.311,1.738-1.454,1.427-2.553
					C203.423,111.432,202.28,110.793,201.181,111.104z"/>
			</g>
			<path style="fill:#C9D0D4;" d="M270.428,379.408l-37.149,10.51c-3.255,0.921-5.147,4.306-4.226,7.561l2.223,7.858
				c0.921,3.255,4.306,5.147,7.561,4.226l37.149-10.51c3.255-0.921,5.147-4.306,4.226-7.561l-2.223-7.858
				C277.069,380.379,273.684,378.487,270.428,379.408z"/>
			<g>
				<path style="fill:#FFFFFF;" d="M258.28,161.013l-129.07,36.516c-2.499,0.707-3.952,3.306-3.245,5.805l37.055,130.975
					c0.707,2.499,3.306,3.951,5.805,3.245l129.07-36.516c2.499-0.707,3.952-3.306,3.245-5.805l-37.055-130.975
					C263.378,161.758,260.779,160.306,258.28,161.013z"/>
				<g>
					
						<rect x="139.186" y="206.847" transform="matrix(0.9622 -0.2722 0.2722 0.9622 -52.7362 47.9279)" style="fill:#809CB5;" width="14.354" height="14.354"/>
					
						<rect x="156.844" y="201.851" transform="matrix(0.9622 -0.2722 0.2722 0.9622 -50.709 52.546)" style="fill:#809CB5;" width="14.354" height="14.354"/>
					
						<rect x="174.502" y="196.855" transform="matrix(0.9622 -0.2722 0.2722 0.9622 -48.6821 57.1644)" style="fill:#809CB5;" width="14.354" height="14.354"/>
					
						<rect x="192.16" y="191.859" transform="matrix(0.9622 -0.2722 0.2722 0.9622 -46.6551 61.7828)" style="fill:#809CB5;" width="14.354" height="14.354"/>
					
						<rect x="209.819" y="186.863" transform="matrix(0.9622 -0.2722 0.2722 0.9622 -44.6285 66.4018)" style="fill:#95C4F0;" width="14.354" height="14.354"/>
					
						<rect x="227.477" y="181.868" transform="matrix(0.9622 -0.2722 0.2722 0.9622 -42.6013 71.0197)" style="fill:#95C4F0;" width="14.354" height="14.354"/>
					
						<rect x="245.135" y="176.872" transform="matrix(0.9622 -0.2722 0.2722 0.9622 -40.5744 75.6381)" style="fill:#95C4F0;" width="14.354" height="14.354"/>
					
						<rect x="144.777" y="226.612" transform="matrix(0.9622 -0.2722 0.2722 0.9622 -57.9054 50.1963)" style="fill:#95C4F0;" width="14.354" height="14.354"/>
					
						<rect x="162.436" y="221.616" transform="matrix(0.9622 -0.2722 0.2722 0.9622 -55.8785 54.8147)" style="fill:#95C4F0;" width="14.354" height="14.354"/>
					
						<rect x="180.094" y="216.62" transform="matrix(0.9622 -0.2722 0.2722 0.9622 -53.8516 59.4332)" style="fill:#95C4F0;" width="14.354" height="14.354"/>
					
						<rect x="197.752" y="211.625" transform="matrix(0.9622 -0.2722 0.2722 0.9622 -51.8237 64.0499)" style="fill:#95C4F0;" width="14.354" height="14.354"/>
					
						<rect x="215.41" y="206.629" transform="matrix(0.9622 -0.2722 0.2722 0.9622 -49.798 68.6706)" style="fill:#95C4F0;" width="14.354" height="14.354"/>
					
						<rect x="233.069" y="201.633" transform="matrix(0.9622 -0.2722 0.2722 0.9622 -47.7708 73.2885)" style="fill:#95C4F0;" width="14.354" height="14.354"/>
					
						<rect x="250.727" y="196.637" transform="matrix(0.9622 -0.2722 0.2722 0.9622 -45.7439 77.9069)" style="fill:#95C4F0;" width="14.354" height="14.354"/>
					
						<rect x="150.369" y="246.377" transform="matrix(0.9622 -0.2722 0.2722 0.9622 -63.0749 52.4651)" style="fill:#95C4F0;" width="14.354" height="14.354"/>
					
						<rect x="168.028" y="241.381" transform="matrix(0.9622 -0.2722 0.2722 0.9622 -61.048 57.0835)" style="fill:#95C4F0;" width="14.354" height="14.354"/>
					
						<rect x="185.686" y="236.386" transform="matrix(0.9622 -0.2722 0.2722 0.9622 -59.0199 61.7002)" style="fill:#95C4F0;" width="14.354" height="14.354"/>
					
						<rect x="203.344" y="231.39" transform="matrix(0.9622 -0.2722 0.2722 0.9622 -56.9942 66.3204)" style="fill:#95C4F0;" width="14.354" height="14.354"/>
					
						<rect x="221.002" y="226.394" transform="matrix(0.9622 -0.2722 0.2722 0.9622 -54.9676 70.9393)" style="fill:#95C4F0;" width="14.354" height="14.354"/>
					
						<rect x="238.661" y="221.398" transform="matrix(0.9622 -0.2722 0.2722 0.9622 -52.9404 75.5572)" style="fill:#95C4F0;" width="14.354" height="14.354"/>
					
						<rect x="256.319" y="216.402" transform="matrix(0.9622 -0.2722 0.2722 0.9622 -50.9134 80.1757)" style="fill:#95C4F0;" width="14.354" height="14.354"/>
					
						<rect x="155.961" y="266.142" transform="matrix(0.9622 -0.2722 0.2722 0.9622 -68.2445 54.7339)" style="fill:#95C4F0;" width="14.354" height="14.354"/>
					
						<rect x="173.619" y="261.147" transform="matrix(0.9622 -0.2722 0.2722 0.9622 -66.2161 59.3506)" style="fill:#95C4F0;" width="14.354" height="14.354"/>
					
						<rect x="191.278" y="256.151" transform="matrix(0.9622 -0.2722 0.2722 0.9622 -64.1906 63.9707)" style="fill:#95C4F0;" width="14.354" height="14.354"/>
					
						<rect x="208.936" y="251.155" transform="matrix(0.9622 -0.2722 0.2722 0.9622 -62.1637 68.5892)" style="fill:#95C4F0;" width="14.354" height="14.354"/>
					
						<rect x="226.594" y="246.159" transform="matrix(0.9622 -0.2722 0.2722 0.9622 -60.1371 73.2081)" style="fill:#95C4F0;" width="14.354" height="14.354"/>
					
						<rect x="244.252" y="241.164" transform="matrix(0.9622 -0.2722 0.2722 0.9622 -58.1099 77.826)" style="fill:#95C4F0;" width="14.354" height="14.354"/>
					
						<rect x="261.911" y="236.168" transform="matrix(0.9622 -0.2722 0.2722 0.9622 -56.0819 82.4423)" style="fill:#95C4F0;" width="14.354" height="14.354"/>
					
						<rect x="161.553" y="285.908" transform="matrix(0.9622 -0.2722 0.2722 0.9622 -73.414 57.0026)" style="fill:#95C4F0;" width="14.354" height="14.354"/>
					
						<rect x="179.211" y="280.912" transform="matrix(0.9622 -0.2722 0.2722 0.9622 -71.3871 61.6211)" style="fill:#95C4F0;" width="14.354" height="14.354"/>
					
						<rect x="196.87" y="275.916" transform="matrix(0.9622 -0.2722 0.2722 0.9622 -69.3587 66.2377)" style="fill:#95C4F0;" width="14.354" height="14.354"/>
					
						<rect x="214.528" y="270.92" transform="matrix(0.9622 -0.2722 0.2722 0.9622 -67.3332 70.8579)" style="fill:#95C4F0;" width="14.354" height="14.354"/>
					
						<rect x="232.186" y="265.925" transform="matrix(0.9622 -0.2722 0.2722 0.9622 -65.3063 75.4764)" style="fill:#95C4F0;" width="14.354" height="14.354"/>
					
						<rect x="249.844" y="260.929" transform="matrix(0.9622 -0.2722 0.2722 0.9622 -63.2794 80.0948)" style="fill:#95C4F0;" width="14.354" height="14.354"/>
					
						<rect x="267.503" y="255.933" transform="matrix(0.9622 -0.2722 0.2722 0.9622 -61.2525 84.7132)" style="fill:#95C4F0;" width="14.354" height="14.354"/>
					
						<rect x="167.145" y="305.673" transform="matrix(0.9622 -0.2722 0.2722 0.9622 -78.5835 59.2714)" style="fill:#95C4F0;" width="14.354" height="14.354"/>
					
						<rect x="184.803" y="300.677" transform="matrix(0.9622 -0.2722 0.2722 0.9622 -76.5549 63.888)" style="fill:#95C4F0;" width="14.354" height="14.354"/>
					
						<rect x="202.461" y="295.682" transform="matrix(0.9622 -0.2722 0.2722 0.9622 -74.5297 68.5083)" style="fill:#809CB5;" width="14.354" height="14.354"/>
					
						<rect x="220.12" y="290.686" transform="matrix(0.9622 -0.2722 0.2722 0.9622 -72.5028 73.1267)" style="fill:#809CB5;" width="14.354" height="14.354"/>
					
						<rect x="237.778" y="285.69" transform="matrix(0.9622 -0.2722 0.2722 0.9622 -70.4758 77.7451)" style="fill:#809CB5;" width="14.354" height="14.354"/>
					
						<rect x="255.436" y="280.694" transform="matrix(0.9622 -0.2722 0.2722 0.9622 -68.4489 82.3635)" style="fill:#809CB5;" width="14.354" height="14.354"/>
					
						<rect x="273.094" y="275.698" transform="matrix(0.9622 -0.2722 0.2722 0.9622 -66.4207 86.9797)" style="fill:#809CB5;" width="14.354" height="14.354"/>
				</g>
			</g>
			<g>
				<g>
					<path style="fill:#FFFFFF;" d="M116.408,159.347l-0.912-1.209l-1.716,0.486l-0.14,1.506l-0.503,0.143l0.458-4.772l0.448-0.126
						l2.879,3.827L116.408,159.347z M115.222,157.737l-0.882-1.208c-0.022-0.032-0.058-0.084-0.106-0.157s-0.1-0.148-0.15-0.226
						c-0.052-0.079-0.094-0.142-0.127-0.189c0.004,0.086,0.005,0.17,0.005,0.256s-0.001,0.165-0.004,0.238
						c-0.002,0.075-0.005,0.135-0.007,0.188l-0.127,1.493L115.222,157.737z"/>
					<path style="fill:#FFFFFF;" d="M117.422,154.437c0.553-0.156,0.986-0.163,1.303-0.019c0.315,0.143,0.53,0.417,0.644,0.819
						c0.052,0.181,0.071,0.362,0.057,0.542c-0.013,0.179-0.069,0.351-0.167,0.512c-0.098,0.162-0.244,0.309-0.439,0.441
						c-0.196,0.131-0.45,0.242-0.762,0.331l-0.521,0.147l0.477,1.684l-0.498,0.141l-1.211-4.28L117.422,154.437z M117.495,154.874
						l-0.574,0.162l0.494,1.745l0.466-0.132c0.273-0.077,0.492-0.171,0.659-0.281c0.165-0.109,0.275-0.245,0.33-0.401
						c0.054-0.158,0.051-0.346-0.012-0.564c-0.08-0.285-0.23-0.471-0.452-0.56C118.186,154.754,117.882,154.765,117.495,154.874z"/>
					<path style="fill:#FFFFFF;" d="M121.029,153.416c0.553-0.156,0.986-0.163,1.303-0.019c0.315,0.143,0.53,0.417,0.644,0.819
						c0.052,0.181,0.071,0.362,0.057,0.542c-0.013,0.179-0.069,0.351-0.167,0.512c-0.098,0.162-0.244,0.309-0.439,0.441
						c-0.196,0.131-0.45,0.242-0.762,0.331l-0.521,0.147l0.477,1.684l-0.498,0.141l-1.211-4.28L121.029,153.416z M121.103,153.854
						l-0.574,0.162l0.494,1.745l0.466-0.132c0.273-0.077,0.492-0.171,0.659-0.281c0.165-0.109,0.275-0.245,0.33-0.401
						c0.054-0.158,0.051-0.346-0.012-0.564c-0.08-0.285-0.23-0.471-0.452-0.56C121.793,153.734,121.489,153.744,121.103,153.854z"/>
					<path style="fill:#FFFFFF;" d="M127.834,153.796c0.093,0.33,0.136,0.643,0.128,0.936c-0.007,0.294-0.066,0.562-0.176,0.803
						c-0.11,0.24-0.272,0.449-0.486,0.623c-0.214,0.175-0.483,0.308-0.805,0.398c-0.332,0.094-0.636,0.123-0.913,0.087
						c-0.276-0.036-0.525-0.128-0.743-0.277c-0.218-0.148-0.406-0.348-0.563-0.596c-0.158-0.249-0.283-0.538-0.377-0.868
						c-0.123-0.437-0.16-0.842-0.109-1.212c0.052-0.371,0.198-0.689,0.44-0.955c0.242-0.267,0.584-0.463,1.028-0.588
						c0.423-0.12,0.806-0.13,1.147-0.03c0.341,0.099,0.633,0.292,0.875,0.579C127.523,152.983,127.708,153.349,127.834,153.796z
						 M124.426,154.76c0.103,0.363,0.243,0.663,0.422,0.898c0.179,0.237,0.395,0.396,0.65,0.482
						c0.254,0.083,0.547,0.078,0.876-0.015c0.332-0.094,0.583-0.243,0.754-0.446c0.171-0.206,0.27-0.454,0.296-0.75
						c0.026-0.293-0.012-0.622-0.114-0.985c-0.156-0.553-0.394-0.951-0.714-1.198c-0.319-0.245-0.725-0.299-1.214-0.161
						c-0.332,0.094-0.585,0.243-0.76,0.446c-0.174,0.203-0.276,0.452-0.307,0.743C124.287,154.066,124.323,154.396,124.426,154.76z"
						/>
					<path style="fill:#FFFFFF;" d="M129.393,155.673l-1.211-4.28l0.498-0.141l1.211,4.28L129.393,155.673z"/>
					<path style="fill:#FFFFFF;" d="M134.414,154.252l-0.573,0.162l-3.351-2.936l-0.023,0.007c0.033,0.095,0.07,0.201,0.112,0.32
						c0.042,0.12,0.085,0.248,0.13,0.385c0.043,0.135,0.085,0.275,0.126,0.418l0.695,2.459l-0.463,0.131l-1.211-4.28l0.571-0.162
						l3.339,2.925l0.021-0.006c-0.023-0.066-0.056-0.163-0.098-0.287c-0.041-0.124-0.085-0.258-0.131-0.402
						c-0.046-0.143-0.087-0.278-0.122-0.403l-0.701-2.479l0.468-0.132L134.414,154.252z"/>
					<path style="fill:#FFFFFF;" d="M136.897,153.55l-0.501,0.142l-1.087-3.842l-1.347,0.381l-0.124-0.438l3.188-0.902l0.124,0.438
						l-1.341,0.379L136.897,153.55z"/>
					<path style="fill:#FFFFFF;" d="M140.769,152.455l-2.51-3.382l-0.023,0.007c0.03,0.078,0.065,0.173,0.103,0.287
						c0.039,0.113,0.08,0.238,0.122,0.372c0.042,0.135,0.083,0.272,0.123,0.414l0.766,2.705l-0.463,0.131l-1.211-4.28l0.738-0.209
						l2.362,3.176l0.021-0.006l0.369-3.949l0.732-0.207l1.211,4.28l-0.492,0.139l-0.775-2.74c-0.036-0.127-0.07-0.255-0.103-0.384
						c-0.033-0.128-0.062-0.251-0.088-0.366c-0.026-0.116-0.048-0.216-0.066-0.303l-0.023,0.007l-0.385,4.195L140.769,152.455z"/>
					<path style="fill:#FFFFFF;" d="M146.662,150.787l-2.384,0.675l-1.211-4.28l2.384-0.675l0.124,0.438l-1.886,0.534l0.392,1.386
						l1.777-0.503l0.123,0.433l-1.777,0.503l0.448,1.585l1.886-0.534L146.662,150.787z"/>
					<path style="fill:#FFFFFF;" d="M150.957,149.572l-0.573,0.162l-3.352-2.936l-0.023,0.007c0.034,0.095,0.07,0.2,0.113,0.32
						c0.042,0.12,0.085,0.248,0.129,0.385c0.044,0.135,0.086,0.275,0.126,0.418l0.696,2.459l-0.463,0.131l-1.211-4.28l0.571-0.162
						l3.339,2.925l0.02-0.006c-0.022-0.066-0.056-0.163-0.097-0.287c-0.041-0.125-0.085-0.259-0.131-0.403
						c-0.046-0.143-0.087-0.278-0.122-0.403l-0.702-2.479l0.469-0.132L150.957,149.572z"/>
					<path style="fill:#FFFFFF;" d="M153.439,148.87l-0.5,0.142l-1.087-3.842l-1.348,0.381l-0.124-0.438l3.189-0.902l0.124,0.438
						l-1.342,0.379L153.439,148.87z"/>
					<path style="fill:#FFFFFF;" d="M159.671,147.107l-0.912-1.209l-1.716,0.485l-0.14,1.507l-0.503,0.143l0.458-4.771l0.448-0.127
						l2.88,3.827L159.671,147.107z M158.484,145.498l-0.882-1.208c-0.021-0.032-0.058-0.084-0.106-0.157s-0.099-0.148-0.15-0.226
						c-0.052-0.079-0.094-0.141-0.127-0.189c0.004,0.086,0.005,0.17,0.005,0.256s-0.001,0.165-0.003,0.238
						c-0.002,0.075-0.005,0.136-0.007,0.188l-0.127,1.494L158.484,145.498z"/>
					<path style="fill:#FFFFFF;" d="M162.556,141.668l-0.326,4.715l-0.5,0.142l-2.749-3.845l0.521-0.147l1.799,2.536
						c0.073,0.102,0.14,0.2,0.201,0.294c0.062,0.093,0.119,0.185,0.171,0.274c0.052,0.088,0.101,0.174,0.146,0.258
						c-0.006-0.095-0.01-0.194-0.012-0.298s-0.001-0.211,0.003-0.327c0.003-0.114,0.009-0.234,0.018-0.36l0.2-3.092L162.556,141.668
						z"/>
					<path style="fill:#FFFFFF;" d="M167.037,145.023l-0.912-1.209l-1.716,0.485l-0.139,1.507l-0.504,0.143l0.459-4.772l0.448-0.126
						l2.879,3.827L167.037,145.023z M165.852,143.414l-0.883-1.208c-0.021-0.031-0.057-0.084-0.106-0.156
						c-0.049-0.073-0.099-0.148-0.15-0.227c-0.052-0.078-0.094-0.141-0.127-0.188c0.004,0.086,0.004,0.17,0.004,0.256
						c0,0.085-0.001,0.165-0.003,0.238c-0.002,0.074-0.004,0.135-0.007,0.188l-0.127,1.494L165.852,143.414z"/>
					<path style="fill:#FFFFFF;" d="M168.144,144.71l-1.211-4.28l0.498-0.141l1.211,4.28L168.144,144.71z"/>
					<path style="fill:#FFFFFF;" d="M169.818,144.236l-1.211-4.28l0.498-0.141l1.085,3.835l1.9-0.537l0.126,0.445L169.818,144.236z"
						/>
					<path style="fill:#FFFFFF;" d="M175.634,142.591l-0.912-1.209l-1.716,0.485l-0.139,1.507l-0.504,0.143l0.459-4.772l0.448-0.126
						l2.879,3.827L175.634,142.591z M174.448,140.981l-0.883-1.208c-0.021-0.032-0.057-0.084-0.106-0.157
						c-0.049-0.073-0.099-0.148-0.15-0.227c-0.051-0.078-0.094-0.141-0.126-0.189c0.003,0.087,0.004,0.171,0.004,0.256
						c0,0.085-0.001,0.165-0.003,0.238c-0.002,0.075-0.005,0.135-0.007,0.188l-0.127,1.494L174.448,140.981z"/>
					<path style="fill:#FFFFFF;" d="M175.529,137.997l1.212-0.343c0.535-0.151,0.96-0.185,1.274-0.102
						c0.315,0.084,0.527,0.318,0.636,0.703c0.047,0.166,0.057,0.324,0.031,0.474c-0.026,0.149-0.088,0.284-0.185,0.403
						c-0.097,0.12-0.229,0.223-0.397,0.306l0.008,0.029c0.196-0.023,0.376-0.016,0.543,0.021c0.166,0.036,0.311,0.113,0.433,0.231
						c0.121,0.117,0.213,0.285,0.274,0.501c0.074,0.263,0.076,0.502,0.005,0.719c-0.07,0.216-0.204,0.401-0.4,0.558
						c-0.196,0.156-0.447,0.276-0.751,0.362l-1.473,0.417L175.529,137.997z M176.547,139.691l0.82-0.232
						c0.373-0.105,0.614-0.239,0.722-0.403s0.129-0.363,0.063-0.6c-0.069-0.244-0.204-0.396-0.405-0.455
						c-0.201-0.058-0.488-0.036-0.861,0.069l-0.737,0.209L176.547,139.691z M176.665,140.11l0.453,1.602l0.89-0.252
						c0.381-0.107,0.63-0.258,0.745-0.452c0.116-0.194,0.138-0.418,0.066-0.672c-0.045-0.161-0.121-0.29-0.224-0.385
						c-0.104-0.095-0.244-0.152-0.42-0.167c-0.177-0.017-0.398,0.012-0.663,0.087L176.665,140.11z"/>
					<path style="fill:#FFFFFF;" d="M180.613,141.182l-1.211-4.28l0.498-0.141l1.085,3.835l1.9-0.538l0.126,0.445L180.613,141.182z"
						/>
					<path style="fill:#FFFFFF;" d="M186.127,139.622l-2.383,0.674l-1.211-4.28l2.383-0.674l0.124,0.438l-1.885,0.533l0.392,1.386
						l1.777-0.503l0.122,0.433l-1.776,0.503l0.448,1.585l1.885-0.533L186.127,139.622z"/>
				</g>
			</g>
			<g>
				
					<rect x="109.016" y="143.676" transform="matrix(0.9622 -0.2722 0.2722 0.9622 -36.2537 57.2178)" style="fill:#004594;" width="158.14" height="31.183"/>
				<g>
					<g>
						<g>
							<path style="fill:#FFFFFF;" d="M128.507,181.306l-1.272,0.36l-7.432-6.51l-0.052,0.015c0.073,0.208,0.156,0.446,0.25,0.712
								c0.093,0.266,0.189,0.549,0.287,0.852c0.097,0.302,0.19,0.61,0.28,0.927l1.543,5.454l-1.026,0.29l-2.686-9.493l1.267-0.358
								l7.404,6.489l0.046-0.013c-0.052-0.148-0.123-0.361-0.215-0.636c-0.092-0.274-0.189-0.572-0.292-0.892
								c-0.102-0.319-0.192-0.618-0.271-0.895l-1.556-5.5l1.04-0.294L128.507,181.306z"/>
							<path style="fill:#FFFFFF;" d="M137.984,173.484c0.207,0.73,0.303,1.423,0.286,2.075s-0.147,1.246-0.391,1.779
								c-0.244,0.535-0.604,0.995-1.079,1.382c-0.475,0.388-1.069,0.681-1.783,0.883c-0.736,0.208-1.411,0.274-2.024,0.194
								c-0.614-0.078-1.163-0.283-1.646-0.614c-0.484-0.33-0.901-0.77-1.251-1.322c-0.35-0.551-0.628-1.191-0.835-1.924
								c-0.274-0.97-0.355-1.866-0.242-2.688c0.114-0.822,0.438-1.529,0.975-2.121c0.537-0.59,1.295-1.026,2.278-1.304
								c0.939-0.266,1.788-0.288,2.544-0.067c0.757,0.22,1.403,0.649,1.941,1.284C137.295,171.679,137.704,172.492,137.984,173.484z
								 M130.426,175.623c0.229,0.805,0.54,1.468,0.937,1.993c0.396,0.523,0.876,0.879,1.441,1.065s1.212,0.175,1.944-0.032
								c0.736-0.208,1.294-0.538,1.673-0.991s0.598-1.006,0.656-1.658c0.059-0.653-0.026-1.381-0.254-2.186
								c-0.347-1.226-0.874-2.111-1.582-2.656c-0.709-0.545-1.606-0.664-2.692-0.356c-0.736,0.208-1.297,0.537-1.685,0.988
								c-0.387,0.451-0.613,1-0.68,1.648C130.116,174.084,130.197,174.813,130.426,175.623z"/>
							<path style="fill:#FFFFFF;" d="M145.386,166.277l-0.724,10.458l-1.11,0.314l-6.095-8.529l1.156-0.327l3.99,5.626
								c0.162,0.224,0.311,0.442,0.447,0.651c0.137,0.208,0.263,0.411,0.38,0.608c0.115,0.195,0.224,0.387,0.323,0.574
								c-0.014-0.211-0.022-0.433-0.026-0.663c-0.004-0.229-0.002-0.471,0.006-0.724c0.008-0.252,0.022-0.519,0.04-0.801
								l0.444-6.857L145.386,166.277z"/>
							<path style="fill:#FFFFFF;" d="M154.655,173.908l-5.285,1.496l-2.686-9.493l5.286-1.496l0.275,0.975l-4.182,1.183l0.869,3.07
								l3.94-1.115l0.272,0.962l-3.941,1.115l0.994,3.512l4.182-1.183L154.655,173.908z"/>
							<path style="fill:#FFFFFF;" d="M160.935,172.131l-5.565-7.5l-0.052,0.015c0.068,0.173,0.144,0.386,0.229,0.637
								c0.085,0.252,0.174,0.526,0.268,0.825s0.186,0.604,0.273,0.916l1.697,6l-1.025,0.29l-2.686-9.493l1.636-0.463l5.24,7.046
								l0.045-0.013l0.818-8.76l1.624-0.459l2.686,9.493l-1.091,0.309l-1.72-6.077c-0.08-0.281-0.156-0.565-0.227-0.851
								c-0.072-0.286-0.137-0.558-0.196-0.815c-0.058-0.257-0.108-0.48-0.147-0.669l-0.053,0.015l-0.854,9.302L160.935,172.131z"/>
							<path style="fill:#FFFFFF;" d="M166.034,160.436l2.688-0.761c1.186-0.335,2.128-0.41,2.826-0.225
								c0.697,0.187,1.167,0.706,1.408,1.559c0.104,0.368,0.127,0.718,0.069,1.05c-0.059,0.332-0.194,0.631-0.409,0.897
								c-0.214,0.267-0.509,0.492-0.881,0.678l0.018,0.064c0.435-0.052,0.836-0.037,1.205,0.045
								c0.369,0.083,0.689,0.253,0.959,0.514c0.27,0.26,0.473,0.63,0.608,1.111c0.166,0.584,0.169,1.116,0.013,1.595
								c-0.156,0.479-0.453,0.892-0.887,1.237c-0.436,0.345-0.991,0.612-1.666,0.804l-3.267,0.924L166.034,160.436z M168.29,164.194
								l1.818-0.514c0.827-0.234,1.361-0.532,1.602-0.894c0.241-0.363,0.287-0.806,0.139-1.33c-0.153-0.542-0.452-0.877-0.899-1.008
								c-0.446-0.131-1.083-0.08-1.909,0.154l-1.637,0.463L168.29,164.194z M168.553,165.123l1.005,3.552l1.974-0.558
								c0.844-0.239,1.395-0.573,1.651-1.004c0.257-0.43,0.306-0.927,0.146-1.489c-0.102-0.359-0.267-0.644-0.498-0.855
								c-0.23-0.211-0.541-0.334-0.932-0.37c-0.392-0.037-0.882,0.028-1.47,0.194L168.553,165.123z"/>
							<path style="fill:#FFFFFF;" d="M182.597,166.003l-5.286,1.496l-2.686-9.493l5.286-1.496l0.276,0.975l-4.182,1.183l0.868,3.07
								l3.941-1.115l0.271,0.962l-3.94,1.115l0.994,3.512l4.182-1.183L182.597,166.003z"/>
							<path style="fill:#FFFFFF;" d="M184.579,155.189c0.78-0.22,1.451-0.306,2.014-0.257c0.563,0.049,1.026,0.235,1.388,0.558
								c0.362,0.322,0.631,0.79,0.803,1.399c0.142,0.503,0.169,0.948,0.083,1.334c-0.087,0.387-0.248,0.726-0.483,1.017
								c-0.236,0.292-0.505,0.54-0.806,0.747l3.811,3.529l-1.285,0.364l-3.445-3.303l-1.974,0.559l1.12,3.961l-1.104,0.312
								l-2.686-9.493L184.579,155.189z M184.784,156.163l-1.396,0.395l1.031,3.643l1.506-0.426c0.774-0.219,1.3-0.539,1.576-0.958
								c0.277-0.419,0.328-0.936,0.154-1.551c-0.183-0.646-0.505-1.047-0.969-1.206C186.224,155.9,185.589,155.935,184.784,156.163z
								"/>
						</g>
					</g>
					<path style="fill:#FFFFFF;" d="M225.695,149.249l-5.468-2.579c-0.396-0.187-0.909-0.041-1.148,0.325
						c-0.239,0.366-0.112,0.814,0.283,1l4.752,2.242l-2.873,4.4c-0.239,0.366-0.112,0.814,0.283,1
						c0.198,0.093,0.425,0.104,0.633,0.045c0.208-0.059,0.396-0.187,0.516-0.37l3.306-5.062c0.115-0.176,0.15-0.38,0.097-0.567
						C226.021,149.494,225.884,149.338,225.695,149.249z"/>
				</g>
			</g>
			<path style="fill:#016BA8;" d="M278.525,342.51l-70.038,19.815c-2.021,0.572-3.197,2.674-2.625,4.696l1.706,6.028
				c0.572,2.022,2.674,3.197,4.696,2.625l70.038-19.815c2.022-0.572,3.197-2.674,2.625-4.696l-1.706-6.028
				C282.649,343.114,280.546,341.939,278.525,342.51z"/>
			<g>
				<path style="fill:#FFFFFF;" d="M287.456,317.364l-96.768,27.377c-0.832,0.236-1.316,1.101-1.081,1.934
					c0.236,0.832,1.101,1.316,1.934,1.081l96.768-27.377c0.832-0.236,1.316-1.101,1.081-1.934
					C289.154,317.613,288.288,317.129,287.456,317.364z"/>
				<path style="fill:#FFFFFF;" d="M289.222,323.608l-96.768,27.377c-0.832,0.236-1.316,1.101-1.081,1.934s1.101,1.316,1.933,1.081
					l96.768-27.377c0.832-0.236,1.316-1.101,1.081-1.934C290.92,323.856,290.054,323.372,289.222,323.608z"/>
				<path style="fill:#FFFFFF;" d="M290.988,329.852l-96.768,27.377c-0.832,0.235-1.316,1.101-1.081,1.934
					c0.236,0.832,1.101,1.316,1.934,1.081l96.768-27.377c0.832-0.236,1.316-1.101,1.081-1.934
					C292.686,330.1,291.821,329.616,290.988,329.852z"/>
			</g>
		</g>
		<g>
			<path style="fill:#009BE3;" d="M106.822,362.76c-0.732-2.562-3.405-4.046-5.965-3.313l-32.217,9.211
				c-2.562,0.732-4.045,3.404-3.312,5.965c0.606,2.12,2.537,3.5,4.636,3.5c0.439,0,0.886-0.06,1.329-0.187l32.217-9.211
				C106.071,367.993,107.554,365.322,106.822,362.76z"/>
			<path style="fill:#009BE3;" d="M72.937,331.191l29.295,16.268c0.742,0.412,1.545,0.607,2.338,0.607
				c1.695,0,3.341-0.896,4.222-2.484c1.294-2.329,0.454-5.267-1.875-6.561l-29.295-16.268c-2.33-1.294-5.267-0.454-6.561,1.876
				C69.767,326.96,70.607,329.898,72.937,331.191z"/>
			<path style="fill:#009BE3;" d="M117.574,376.3c-2.331-1.294-5.267-0.454-6.561,1.876l-16.267,29.295
				c-1.294,2.329-0.454,5.267,1.876,6.561c0.742,0.412,1.546,0.607,2.338,0.607c1.696,0,3.341-0.896,4.223-2.484l16.267-29.295
				C120.744,380.531,119.904,377.594,117.574,376.3z"/>
		</g>
		<g>
			<g>
				<path style="fill:#009BE3;" d="M384.414,102.606c2.562-0.732,4.046-3.405,3.313-5.965l-9.211-32.217
					c-0.732-2.562-3.404-4.045-5.965-3.313c-2.12,0.606-3.5,2.537-3.5,4.637c0,0.439,0.06,0.886,0.187,1.329l9.211,32.217
					C379.181,101.856,381.852,103.339,384.414,102.606z"/>
				<path style="fill:#009BE3;" d="M415.983,68.721l-16.268,29.295c-0.412,0.742-0.607,1.546-0.607,2.338
					c0,1.695,0.896,3.341,2.484,4.222c2.329,1.294,5.267,0.454,6.561-1.875l16.268-29.295c1.294-2.33,0.454-5.267-1.876-6.561
					C420.214,65.552,417.277,66.392,415.983,68.721z"/>
				<path style="fill:#009BE3;" d="M370.874,113.359c1.294-2.331,0.454-5.267-1.876-6.561l-29.294-16.267
					c-2.329-1.294-5.267-0.454-6.561,1.876c-0.412,0.742-0.607,1.546-0.607,2.338c0,1.696,0.896,3.341,2.484,4.223l29.294,16.267
					C366.643,116.529,369.581,115.689,370.874,113.359z"/>
			</g>
		</g>
		<g>
			<path style="opacity:0.33;fill:#0584A4;" d="M329.977,151.153H191.711c-3.605,0-4.548,2.425-2.105,5.417l70.046,85.794
				c2.443,2.992,7.346,5.417,10.951,5.417h39.416c1.943,0,4.605,1.595,5.199,3.116l5.27,13.482
				c1.874,4.795,11.691,9.07,14.789,6.441l26.227-22.258c0.602-0.51,1.549-0.78,2.738-0.78h44.625c3.605,0,4.548-2.425,2.105-5.417
				l-70.046-85.794C338.485,153.578,333.582,151.153,329.977,151.153z"/>
			<path style="fill:#FFFFFE;" d="M428.333,126.45H290.067c-3.605,0-6.528,2.923-6.528,6.528v103.387
				c0,3.605,2.923,6.528,6.528,6.528h39.416c1.943,0,3.303,1.922,2.656,3.754l-5.737,16.247c-2.04,5.778,4.286,10.93,9.531,7.761
				l44.399-26.822c1.018-0.615,2.186-0.94,3.375-0.94h44.625c3.605,0,6.528-2.923,6.528-6.528V132.978
				C434.861,129.373,431.938,126.45,428.333,126.45z"/>
			<g>
				<path style="fill:#EFC401;" d="M378.435,193.402l13.935-13.935c9.286-9.286,9.286-24.342,0-33.628l0,0
					c-9.286-9.286-24.342-9.286-33.628,0l-13.935,13.935l-32.282,5.51l0,0c5.204,30.949,29.452,55.197,60.401,60.401l0,0
					L378.435,193.402z"/>
				<path style="fill:#EB8A01;" d="M372.925,225.684L372.925,225.684L372.925,225.684c-15.084-24.618-35.782-45.316-60.401-60.401h0
					l0,0C317.728,196.232,341.977,220.481,372.925,225.684z"/>
				<path style="fill:#FFF01F;" d="M391.105,156.515c-1.989,4.409-9.119,5.494-15.925,2.424c-6.806-3.07-10.711-9.133-8.722-13.542
					c1.989-4.409,9.119-5.494,15.925-2.424C389.189,146.043,393.094,152.106,391.105,156.515z"/>
			</g>
		</g>
	</g>
</g>
</svg>
