<?xml version="1.0" encoding="utf-8"?>
<!-- Generator: Adobe Illustrator 27.5.0, SVG Export Plug-In . SVG Version: 6.00 Build 0)  -->
<svg version="1.1" xmlns="http://www.w3.org/2000/svg" xmlns:xlink="http://www.w3.org/1999/xlink" x="0px" y="0px"
	 viewBox="0 0 500 500" style="enable-background:new 0 0 500 500;" xml:space="preserve">
<g id="BACKGROUND">
	<rect style="fill:#EEFCFC;" width="500" height="500"/>
</g>
<g id="OBJECT">
	<g>
		<path style="fill:#E1F7F7;" d="M452.99,176.1l-107.26,83.09l138.71-9.28L452.99,176.1z M441.71,206.17l17.42,31.58l-75.642,8.459
			L441.71,206.17z"/>
		
			<line style="fill:none;stroke:#FFFFFF;stroke-width:0.25;stroke-miterlimit:10;" x1="357.238" y1="257.86" x2="356.99" y2="254.441"/>
		
			<line style="fill:none;stroke:#FFFFFF;stroke-width:0.25;stroke-miterlimit:10;" x1="366.847" y1="257.242" x2="366.598" y2="253.823"/>
		
			<line style="fill:none;stroke:#FFFFFF;stroke-width:0.25;stroke-miterlimit:10;" x1="386.064" y1="256.006" x2="385.816" y2="252.587"/>
		
			<line style="fill:none;stroke:#FFFFFF;stroke-width:0.25;stroke-miterlimit:10;" x1="395.673" y1="255.388" x2="395.424" y2="251.969"/>
		
			<line style="fill:none;stroke:#FFFFFF;stroke-width:0.25;stroke-miterlimit:10;" x1="405.281" y1="254.771" x2="405.033" y2="251.351"/>
		
			<line style="fill:none;stroke:#FFFFFF;stroke-width:0.25;stroke-miterlimit:10;" x1="414.89" y1="254.153" x2="414.641" y2="250.734"/>
		
			<line style="fill:none;stroke:#FFFFFF;stroke-width:0.25;stroke-miterlimit:10;" x1="424.498" y1="253.535" x2="424.25" y2="250.116"/>
		
			<line style="fill:none;stroke:#FFFFFF;stroke-width:0.25;stroke-miterlimit:10;" x1="434.107" y1="252.917" x2="433.858" y2="249.498"/>
		
			<line style="fill:none;stroke:#FFFFFF;stroke-width:0.25;stroke-miterlimit:10;" x1="443.716" y1="252.299" x2="443.467" y2="248.88"/>
		
			<line style="fill:none;stroke:#FFFFFF;stroke-width:0.25;stroke-miterlimit:10;" x1="453.324" y1="251.681" x2="453.076" y2="248.262"/>
		
			<line style="fill:none;stroke:#FFFFFF;stroke-width:0.25;stroke-miterlimit:10;" x1="462.933" y1="251.063" x2="462.684" y2="247.644"/>
		
			<line style="fill:none;stroke:#FFFFFF;stroke-width:0.25;stroke-miterlimit:10;" x1="472.541" y1="250.446" x2="472.293" y2="247.026"/>
		
			<line style="fill:none;stroke:#FFFFFF;stroke-width:0.25;stroke-miterlimit:10;" x1="376.456" y1="256.624" x2="376.207" y2="253.205"/>
	</g>
	<g>
		<path style="fill:#E1F7F7;" d="M156.438,440.778c7.089-5.382,10.721-9.959,9.64-11.271c-2.172-2.637-21.534,7.902-14.107,0.882
			c7.427-7.02,18.931-30.38,16.316-31.562c-2.615-1.182-6.835,5.18-9.595,3.257s12.169-25.144,10.164-27.138
			c-2.005-1.994-6.705,2.694-8.151,1.591c-1.446-1.103,5.91-22.922,3.262-23.482c-2.648-0.56-4.563,3.814-6.828,3.64
			c-2.265-0.173-2.645-20.147-5.681-19.445c-3.036,0.702-2.06,17.468-3.682,17.566c-1.622,0.098,0.49-5.894-3.598-4.419
			c-4.088,1.474,2.229,22.628-0.298,22.574c-2.527-0.054-0.98-6.701-4.683-5.497c-3.703,1.204-1.32,28.547-3.782,28.262
			c-2.462-0.285,0.896-11.661-3.843-11.283c-4.109,0.328-6.682,24.512-9.148,30.384c-0.68-1.518-1.409-3.243-2.166-5.068
			c-0.041-1.376-0.325-2.575-1.299-3.144c-3.881-9.42-8.284-19.984-11.278-19.644c-5.492,0.624,0.874,12.856-1.872,13.73
			c-2.746,0.874-6.116-30.856-10.61-31.405c-4.493-0.549-1.248,6.691-4.119,7.315c-2.871,0.624-0.374-24.919-5.367-25.69
			c-4.993-0.772-1.248,5.594-3.12,5.844c-1.872,0.25-4.493-19.097-8.113-19.222c-3.62-0.125,0.394,22.75-2.151,23.452
			c-2.545,0.702-5.705-3.862-8.601-2.633c-2.896,1.229,10.357,24.486,8.952,26.067c-1.404,1.58-7.811-2.721-9.655,0
			c-1.843,2.721,20.362,25.892,17.641,28.701c-2.721,2.809-8.952-3.511-11.673-1.58c-2.379,1.688,11.333,20.316,21.526,29.22H62.917
			v60.224h114.615v-60.224H156.438z"/>
		<g>
			<path style="fill:#B5E2E2;" d="M86.669,430.364c0,0,7.736-35.472,13.344-34.842c5.608,0.631,0.612,11.098,4.138,12.173
				c3.526,1.075,6.869-38.768,12.744-39.237c5.875-0.469,1.712,13.633,4.764,13.987c3.052,0.354,0.098-33.542,4.688-35.034
				c4.591-1.492,2.673,6.747,5.805,6.814c3.132,0.067-4.698-26.155,0.369-27.983c5.068-1.827,2.449,5.6,4.46,5.479
				c2.01-0.121,0.801-20.904,4.564-21.775c3.763-0.87,4.235,23.89,7.042,24.105c2.807,0.215,5.182-5.207,8.464-4.513
				c3.282,0.694-5.837,27.742-4.044,29.109c1.793,1.367,7.619-4.444,10.104-1.972s-16.021,31.257-12.6,33.641
				c3.421,2.383,8.652-5.503,11.894-4.038c3.242,1.465-11.019,30.423-20.225,39.125c-9.206,8.702,14.795-4.362,17.487-1.093
				c2.693,3.269-18.205,22.891-50.121,34.108C77.631,469.634,86.669,430.364,86.669,430.364z"/>
			<path style="fill:#FFFFFF;" d="M92.886,455.249c-0.215,0.042-0.445-0.025-0.605-0.196c-0.246-0.264-0.232-0.679,0.032-0.926
				c25.084-23.41,37.13-57.846,42.819-82.612c6.173-26.875,6.4-48.483,6.401-48.698c0.003-0.361,0.299-0.654,0.66-0.65
				c0.362,0.003,0.653,0.298,0.651,0.66c-0.002,0.216-0.227,21.943-6.428,48.953c-5.729,24.954-17.875,59.663-43.209,83.306
				C93.114,455.172,93.002,455.226,92.886,455.249z"/>
		</g>
		<g>
			<path style="fill:#C9EFF1;" d="M135.555,435.493c0,0-16.726-38.751-22.985-36.782c-6.258,1.969,1.774,12.799-2.01,14.811
				c-3.784,2.012-16.472-42.705-23.28-41.931c-6.808,0.774,1.083,15.937-2.321,17.02c-3.404,1.083-7.582-38.249-13.152-38.93
				s-1.547,8.294-5.106,9.067c-3.559,0.774-0.464-30.89-6.653-31.846c-6.189-0.957-1.547,6.935-3.868,7.244
				c-2.321,0.31-5.57-23.673-10.057-23.828c-4.487-0.155,0.489,28.202-2.667,29.072c-3.155,0.87-7.072-4.787-10.662-3.264
				c-3.59,1.523,12.838,30.353,11.097,32.312c-1.741,1.959-9.683-3.373-11.968,0c-2.285,3.373,25.241,32.096,21.868,35.578
				c-3.373,3.481-11.097-4.352-14.47-1.958c-3.373,2.394,19.348,32.258,31.791,40.137c12.442,7.879-17.852-1.682-20.196,2.648
				c-2.344,4.329,25.87,22.064,64.784,27.754C154.613,478.287,135.555,435.493,135.555,435.493z"/>
			<path style="fill:#FFFFFF;" d="M134.004,465.272c0.254,0,0.502-0.127,0.647-0.358c0.222-0.356,0.114-0.826-0.243-1.049
				c-33.834-21.124-55.249-57.732-67.255-84.723c-13.029-29.29-18.1-53.893-18.149-54.138c-0.084-0.412-0.487-0.68-0.897-0.595
				c-0.413,0.084-0.679,0.485-0.596,0.897c0.051,0.247,5.146,24.986,18.237,54.423c12.094,27.196,33.683,64.094,67.855,85.428
				C133.726,465.235,133.866,465.272,134.004,465.272z"/>
		</g>
		<path style="fill:#507896;" d="M160.117,502.466H45.502v-46.29c0-7.696,6.239-13.934,13.934-13.934h86.747
			c7.696,0,13.934,6.238,13.934,13.934V502.466z"/>
		<line style="fill:none;stroke:#A9CBE0;stroke-miterlimit:10;" x1="45.502" y1="464.016" x2="160.117" y2="464.016"/>
		<line style="fill:none;stroke:#A9CBE0;stroke-miterlimit:10;" x1="45.502" y1="484.009" x2="160.117" y2="484.009"/>
	</g>
	<g>
		<polygon style="fill:#A9CBE0;" points="197.683,32.636 47.466,32.636 47.466,275.435 243.675,275.435 243.675,93.426 		"/>
		<polygon style="fill:#C9EFF1;" points="190.831,28.331 40.614,28.331 40.614,271.13 236.823,271.13 236.823,89.12 		"/>
		
			<line style="fill:none;stroke:#FFFFFF;stroke-width:0.9538;stroke-miterlimit:10;" x1="56.473" y1="190.094" x2="215.821" y2="190.094"/>
		
			<line style="fill:none;stroke:#FFFFFF;stroke-width:0.9538;stroke-miterlimit:10;" x1="56.473" y1="206.436" x2="215.821" y2="206.436"/>
		
			<line style="fill:none;stroke:#FFFFFF;stroke-width:0.9538;stroke-miterlimit:10;" x1="56.473" y1="222.778" x2="215.821" y2="222.778"/>
		
			<line style="fill:none;stroke:#FFFFFF;stroke-width:0.9538;stroke-miterlimit:10;" x1="56.473" y1="239.118" x2="114.632" y2="239.118"/>
		
			<line style="fill:none;stroke:#FFFFFF;stroke-width:7.63;stroke-miterlimit:10;" x1="56.473" y1="172.992" x2="149.193" y2="172.992"/>
		<polygon style="fill:#507896;" points="190.831,33.329 175.797,90.829 236.823,91.792 236.823,89.12 		"/>
		<polygon style="fill:#E1F7F7;" points="190.831,28.331 171.58,86.934 236.823,89.12 		"/>
		
			<line style="fill:none;stroke:#FFFFFF;stroke-width:0.9538;stroke-miterlimit:10;" x1="56.473" y1="98.849" x2="215.821" y2="98.849"/>
		
			<line style="fill:none;stroke:#FFFFFF;stroke-width:0.9538;stroke-miterlimit:10;" x1="56.473" y1="115.191" x2="215.821" y2="115.191"/>
		
			<line style="fill:none;stroke:#FFFFFF;stroke-width:0.9538;stroke-miterlimit:10;" x1="56.473" y1="131.533" x2="215.821" y2="131.533"/>
		
			<line style="fill:none;stroke:#FFFFFF;stroke-width:0.9538;stroke-miterlimit:10;" x1="56.473" y1="147.873" x2="114.632" y2="147.873"/>
		
			<line style="fill:none;stroke:#FFFFFF;stroke-width:7.63;stroke-miterlimit:10;" x1="56.473" y1="82.507" x2="149.193" y2="82.507"/>
	</g>
	<g>
		<rect x="305.898" y="52.11" style="fill:#A9CBE0;" width="129.649" height="118.4"/>
		<rect x="299.725" y="45.512" style="fill:#507896;" width="129.649" height="118.4"/>
		<rect x="307.183" y="53.11" style="fill:#C9EFF1;" width="114.735" height="103.203"/>
		<line style="fill:none;stroke:#FFFFFF;stroke-miterlimit:10;" x1="314.826" y1="81.837" x2="415.368" y2="81.837"/>
		<line style="fill:none;stroke:#FFFFFF;stroke-miterlimit:10;" x1="314.826" y1="95.149" x2="415.368" y2="95.149"/>
		<line style="fill:none;stroke:#FFFFFF;stroke-miterlimit:10;" x1="314.826" y1="108.461" x2="415.368" y2="108.461"/>
		<line style="fill:none;stroke:#FFFFFF;stroke-miterlimit:10;" x1="314.826" y1="121.773" x2="415.368" y2="121.773"/>
		<line style="fill:none;stroke:#FFFFFF;stroke-miterlimit:10;" x1="314.826" y1="135.085" x2="415.368" y2="135.085"/>
		<line style="fill:none;stroke:#FFFFFF;stroke-miterlimit:10;" x1="314.826" y1="148.397" x2="415.368" y2="148.397"/>
		<path style="fill:#E1F7F7;" d="M252.414,148.397h129.193c0,0,21.808-4.705,35.751-47.644c5.484-16.89,4.437-47.644,4.437-47.644
			H307.06l0,0C305.182,104.712,252.414,148.397,252.414,148.397z"/>
		
			<line style="fill:none;stroke:#FFFFFF;stroke-width:2.3233;stroke-linecap:round;stroke-linejoin:round;stroke-miterlimit:10;" x1="316.281" y1="57.488" x2="316.281" y2="49.161"/>
		
			<line style="fill:none;stroke:#FFFFFF;stroke-width:2.3233;stroke-linecap:round;stroke-linejoin:round;stroke-miterlimit:10;" x1="329.973" y1="57.488" x2="329.973" y2="49.161"/>
		
			<line style="fill:none;stroke:#FFFFFF;stroke-width:2.3233;stroke-linecap:round;stroke-linejoin:round;stroke-miterlimit:10;" x1="343.665" y1="57.488" x2="343.665" y2="49.161"/>
		
			<line style="fill:none;stroke:#FFFFFF;stroke-width:2.3233;stroke-linecap:round;stroke-linejoin:round;stroke-miterlimit:10;" x1="357.357" y1="57.488" x2="357.357" y2="49.161"/>
		
			<line style="fill:none;stroke:#FFFFFF;stroke-width:2.3233;stroke-linecap:round;stroke-linejoin:round;stroke-miterlimit:10;" x1="371.049" y1="57.488" x2="371.049" y2="49.161"/>
		
			<line style="fill:none;stroke:#FFFFFF;stroke-width:2.3233;stroke-linecap:round;stroke-linejoin:round;stroke-miterlimit:10;" x1="384.741" y1="57.488" x2="384.741" y2="49.161"/>
		
			<line style="fill:none;stroke:#FFFFFF;stroke-width:2.3233;stroke-linecap:round;stroke-linejoin:round;stroke-miterlimit:10;" x1="398.433" y1="57.488" x2="398.433" y2="49.161"/>
		
			<line style="fill:none;stroke:#FFFFFF;stroke-width:2.3233;stroke-linecap:round;stroke-linejoin:round;stroke-miterlimit:10;" x1="412.125" y1="57.488" x2="412.125" y2="49.161"/>
		<line style="fill:none;stroke:#FFFFFF;stroke-miterlimit:10;" x1="310.984" y1="73.093" x2="410.5" y2="73.093"/>
		<line style="fill:none;stroke:#FFFFFF;stroke-miterlimit:10;" x1="307.937" y1="87.055" x2="407.454" y2="87.055"/>
		<line style="fill:none;stroke:#FFFFFF;stroke-miterlimit:10;" x1="297.275" y1="104.712" x2="401.361" y2="104.712"/>
	</g>
	<g>
		<circle style="fill:#EEFCFC;" cx="74.168" cy="258.132" r="43.418"/>
		<circle style="fill:none;stroke:#507896;stroke-width:6.6763;stroke-miterlimit:10;" cx="74.168" cy="258.132" r="43.418"/>
		<path style="fill:#A9CBE0;" d="M108.576,261.531c0,8.498-3.081,16.28-8.183,22.27H51.561v-48.212
			c6.047-5.265,13.953-8.46,22.604-8.46C93.173,227.129,108.576,242.532,108.576,261.531z"/>
		<path style="fill:#C9EFF1;" d="M108.576,258.127c0,8.498-0.347,14.26-5.631,22.27H51.561v-48.212
			c6.047-5.265,13.953-8.46,22.604-8.46C93.173,223.726,108.576,239.129,108.576,258.127z"/>
		
			<line style="fill:none;stroke:#507896;stroke-width:9.5375;stroke-miterlimit:10;" x1="102.3" y1="223.456" x2="142.863" y2="182.893"/>
		
			<line style="fill:none;stroke:#507896;stroke-width:19.0751;stroke-linecap:round;stroke-linejoin:round;stroke-miterlimit:10;" x1="125.245" y1="200.391" x2="159.2" y2="166.436"/>
		
			<path style="fill:none;stroke:#FFFFFF;stroke-width:4.3939;stroke-linecap:round;stroke-linejoin:round;stroke-miterlimit:10;" d="
			M91.585,233.677c6.056,4.415,10.579,10.981,12.296,18.881"/>
		
			<path style="fill:none;stroke:#FFFFFF;stroke-width:4.3939;stroke-linecap:round;stroke-linejoin:round;stroke-miterlimit:10;" d="
			M51.376,236.006c4.018-3.721,9.053-6.45,14.792-7.697"/>
	</g>
	<g>
		<path style="fill:#507896;" d="M500.34,294.71v207.76H222.46c0.15-1.42,0.3-2.84,0.45-4.28c0.92-8.44,1.97-17.19,3.19-26.12
			c8.75-64.46,25.69-138.63,58.48-175.94c0.05-0.06,0.1-0.11,0.15-0.17c7.7-8.74,16.28-15.44,25.84-19.5
			c6.81-2.91,14.13-4.47,21.97-4.46c0,0,12.63-1.63,31.21-2.66c8.97-0.5,19.32-0.86,30.3-0.83c1.5,0,3.01,0.02,4.53,0.04
			c4,0.04,8.06,0.15,12.16,0.33c2.47,0.1,4.95,0.23,7.44,0.39c28.44,1.8,57.45,7.11,75.66,19.73
			C496.14,290.59,498.3,292.52,500.34,294.71z"/>
		<path style="fill:#3A5A6D;" d="M500.336,294.714c-2.041-2.196-4.2-4.121-6.497-5.713c-18.204-12.623-47.218-17.928-75.662-19.726
			c4.465,3.911,11.987,8.799,23.567,14.859c70.574,36.975,26.065,127.586,25.93,127.86c-20.743,8.526-48.908,12.761-85.757,4.087
			c-96.279-22.662-106.501-33.644-106.501-33.644l26.294,120.029h198.627V294.714z"/>
		<path style="fill:#3A5A6D;" d="M500.34,450.3c-3-20.76-19.79-52.6-23.5-61.61c-4.44-10.79-5-39.99-9.14-49.25
			c-2.79-6.24-21.76-13.37-34.85-18.32c0,0-5.63-18.55-23.42-20.6c-0.95-4.08-1.63-4.36-1.63-4.36s3.05-5.8,0.71-10.59
			c-0.88-1.82-2.39-3.27-3.92-4.37c0.89-2.06,1.68-4.27,2.36-6.64c0.63-0.62,0.79-1.29,0.79-1.29s0.77,1.95,2.43,1.29
			c0.53-0.21,2.896-0.866,2.816-3.976c0-0.15-2.224,0.16-2.224,0c-4.16-0.01-8.252-2.133-12.182-2.033
			c-6.47,0.13-12.58,0.39-18.15,0.7c-18.58,1.03-31.21,2.66-31.21,2.66c-7.84-0.01-15.16,1.55-21.97,4.46
			c0.54,1.17,1.11,2.33,1.72,3.47c0.83,1.54,1.7,3,2.6,4.4c-1.65,1.8-4.49,5.18-4.57,7.25c-0.07,2.51,0.6,3.1,0.79,3.21
			c-4.13,0.23-12.91,0.7-20.47,0.99c-2.11,0.08-4.12,0.15-5.91,0.18c-2.47,0.06-4.52,0.07-5.8,0.01c-4.02-0.2-8.04-0.1-11.03,0.25
			c-32.79,37.31-49.73,111.48-58.48,175.94c7.32,1.34,15.69,1.88,15.69,1.88s-7.14,13.5-12.63,24.15h134.23
			c0.69,0.07,1.39,0.13,2.11,0.18c4.52,0.31,17.06,3.35,28.31,4.1c0.54,0.04,1.08,0.07,1.62,0.09c2.1,0.1,4.14,0.12,6.06,0
			c0.4-0.02,0.8-0.05,1.19-0.09c0.4-0.04,0.79-0.08,1.18-0.13c12.52-1.59,62.51,2.54,78.05-2.54c15.55-5.07,14.28-20.62,18.4-38.7
			c0.01-0.05,0.02-0.1,0.03-0.15C500.99,457.92,500.92,454.32,500.34,450.3z"/>
		<path style="fill:#6793BA;" d="M500.336,326.281v-31.577c-2.04-2.194-4.201-4.111-6.497-5.703
			c-46.012-31.916-161.296-16.999-161.296-16.999l1.211,7.227c0,0,25.111-1.35,75.931,1.895
			C450.754,283.742,488.228,287.344,500.336,326.281z"/>
		<path style="fill:#6793BA;" d="M500.336,393.812c-8.645,41.777-29.11,84.595-42.164,109.096h42.164V393.812z"/>
		<g>
			<path style="fill:#3A5A6D;" d="M500.336,305.32c-7.477-10.095-18.322-17.07-33.077-21.286
				c-37.315-10.012-78.256-13.365-125.157-10.262l0.133,1.996c46.682-3.092,87.408,0.245,124.491,10.193
				c15.278,4.365,26.217,11.755,33.431,22.575c0.062,0.098,0.118,0.198,0.18,0.296V305.32z"/>
		</g>
	</g>
	<g>
		<path style="fill:#FFC926;" d="M211.41,478.31c0,0-7.14,13.503-12.633,24.156H418.49l-1.1-11.846l-12.84-138.03l-19.19-18.56
			l-20.92-20.23l-49.3,1.72l-15.37-16.59c0,0-12.55,0.73-22.83,1.12c-5.02,0.19-9.51,0.3-11.71,0.19
			c-6.71-0.33-13.42,0.16-15.38,1.31c-1.97,1.14-11.46,4.25-13.26,6.87c-1.8,2.62-67.42,102.39-69.15,110.74
			c-1.31,6.32,4.64,28.13,8.36,40.25c1.2,3.9,2.17,6.8,2.59,7.85c1.72,4.32,6.91,6.91,14.69,8.64
			C200.85,477.63,211.41,478.31,211.41,478.31z"/>
		<path style="fill:#F29820;" d="M211.41,478.31c0,0-7.14,13.503-12.633,24.156H418.49l-1.1-11.846l-23.3-68.25l-18.49,20.64H260.19
			c0,0-20.38,31.54-47.31,30.29c-18.13-0.85-30.76-8.79-37.08-13.89c1.2,3.9,2.17,6.8,2.59,7.85c1.72,4.32,6.91,6.91,14.69,8.64
			C200.85,477.63,211.41,478.31,211.41,478.31z"/>
		<path style="fill:#F29820;" d="M230.889,417.303c0,0,0.993-11.586,3.897-25.938c4.163-20.568,13.838-51.099,24.189-62.582
			c0,0-5.823,5.499-7.925,9.381c0,0,2.75-14.395,5.984-20.865c0,0-25.973,49.271-31.699,102.982L230.889,417.303z"/>
		<path style="fill:#FFC926;" d="M469.93,465.37c-4.12,18.08-2.85,33.63-18.4,38.7c-15.54,5.08-65.53,0.95-78.05,2.54
			c-12.53,1.59-32.4-3.57-38.36-3.97c-5.97-0.4-10.54-1.39-16.7-4.17c-6.16-2.79-11.13-4.18-10.93-11.33l7.15,0.99
			c0,0,9.46-7.09,17.36-17.59c3.09-4.1,5.94-8.71,7.89-13.62c0,0-1.48-1.86-2.6-2.21c0,0,0.83-0.74,2.13-1.21
			c1.21-0.44,2.83-0.65,4.55,0.18c3.57,1.72,34.52,10.13,40.71,13.74c6.19,3.61,15.47,3.35,15.47,3.35s-0.14-1.19-0.38-3.33
			c-1.46-13.42-6.41-64.11-0.52-88.41c0,0-36.34-7.72-43.61-25.44c-7.26-17.71,6.59-45.63,20.56-46.88c0,0,10.47,10.31,13.88,13.47
			c3.41,3.17,43.1,14.37,47.24,23.62c4.14,9.26,4.7,38.46,9.14,49.25C450.9,403.83,474.06,447.29,469.93,465.37z"/>
		<path style="fill:#F29820;" d="M398.26,324.356c-12.5,8.58-32.059,21.71-58.37,21.504c-52.877-0.413-61.88-31.76-62.95-45.81
			c10.28-0.39,22.83-1.12,22.83-1.12l15.37,16.59l49.3-1.72L398.26,324.356z"/>
		<g>
			<path style="fill:#FF8D78;" d="M228.806,416.193c0,0,15.524,2.108,16.949,2.655c1.424,0.548-3.342,4.821-3.342,4.821
				l-7.627,1.863l-5.736-5.534L228.806,416.193z"/>
			<path style="fill:#507896;" d="M237.694,420.947l-22.552-63.407c-0.478-1.343,0.231-2.818,1.578-3.284l0,0
				c1.331-0.461,2.785,0.238,3.257,1.565l21.452,60.372l1.677,6.172l-3.666,3.707L237.694,420.947z"/>
			<path style="fill:#FFD1C9;" d="M257.97,435.54l-0.89,0.29c-0.01,0-0.01,0-0.02,0l-7.64,2.4l-12.05,3.8c-0.01,0-0.01,0-0.01,0
				l-5.25,1.66l-6.03,1.9l-13.73,4.33c0,0-1.69-5.88,0-8.14c0.1-0.13,0.2-0.26,0.29-0.39c1.55-2.11,2.65-4.1,2.86-6.15
				c0.22-2.18-0.22-4,0.87-5.82c1.09-1.81,3.93-4.21,4.8-6.03c0.87-1.82,1.02-3.93,2.62-5.52c1.6-1.6,5.02-1.68,5.02-1.68
				s8.32,4.43,13.42,7.21c1.81,0.98,3.22,1.76,3.7,2.05c0.88,0.53,3.6,2.8,6.24,5.07C255.13,433.04,257.97,435.54,257.97,435.54z"/>
			<path style="fill:#FFA796;" d="M252.17,430.52c-1.65,0.45-3.93,0.56-6.66-0.64c-5.71-2.52-5.77-4.73-5.77-4.82l2.49-1.66
				c1.81,0.98,3.22,1.76,3.7,2.05C246.81,425.98,249.53,428.25,252.17,430.52z"/>
			<path style="fill:#FFD1C9;" d="M255.12,433.06l-5.66-4.86c0,0-4.01,0.13-6.25-0.59c-2.24-0.73-5-3.03-4.08-6.39
				c0.92-3.35,4.85-11.08,9.9-9.28c3.56,1.27,5.12,11.23,5.74,17.01C255.03,431.37,255.12,433.06,255.12,433.06z"/>
			<path style="fill:#FFA796;" d="M226.08,445.59l-13.73,4.33c0,0-1.69-5.88,0-8.14c0.1-0.13,0.2-0.26,0.29-0.39
				C215.08,443.05,219.22,444.86,226.08,445.59z"/>
			<path style="fill:#FFA796;" d="M237.36,442.03l-5.25,1.66l-9.46-4C223.12,439.83,229.17,441.64,237.36,442.03z"/>
			<path style="fill:#FFA796;" d="M257.06,435.83l-7.64,2.4l-8.87-4l-11.5-4.35c0,0,6.84,0.99,11.92,2.77
				C244.46,433.88,252.44,435.15,257.06,435.83z"/>
			<path style="fill:#FF8D78;" d="M255.12,433.06l-5.66-4.86c0,0,2.28-0.92,3.03-3.42c0,0,0.35,2.35,2.28,4.17
				C255.03,431.37,255.12,433.06,255.12,433.06z"/>
			<path style="fill:#FFA796;" d="M241.913,419.341c0,0,2.394-1.212,7.547,2.002C249.46,421.343,243.916,418.708,241.913,419.341z"
				/>
		</g>
		<path style="fill:#ED430D;" d="M291.42,441.86c-10.86,34.57-16,53.93-16,53.93l-46.61-4.26c0,0,11.94-20.36,24.58-47.02
			L291.42,441.86z"/>
		<path style="fill:#F29820;" d="M398.865,458.439c0,0-6.509-66.306,3.597-89.241c0,0-3.629,3.548-4.785,8.605
			c0,0-2.735-15.748,1.955-23.838c0,0-9.195,8.957-2.83,28.461c0,0-5.643,41.855-0.748,76.013H398.865z"/>
		<g>
			<path style="fill:#FF6300;" d="M321.36,347.41c-2.72,10.39-7.04,24.96-13.88,45.22c-6.32,18.72-11.66,35.22-16.06,49.23
				c-10.86,34.57-16,53.93-16,53.93l-46.61-4.26c0,0,11.94-20.36,24.58-47.02c2.22-4.69,4.47-9.58,6.68-14.59
				c10.64-24.12,30.58-70.23,40.89-94.08c3.98-9.23,6.52-15.12,6.52-15.12l18.52,2.62C326,323.34,326.4,328.23,321.36,347.41z"/>
			<path style="fill:#ED430D;" d="M367.138,321.682c0,0,27.15,0.676,35.324,3.801c0,0-5.622-18.553-23.412-20.603
				C379.05,304.88,362.093,315.262,367.138,321.682z"/>
			<path style="fill:#ED430D;" d="M321.36,347.41c-8.86-2.91-15.53-7.29-20.4-11.57c3.98-9.23,6.52-15.12,6.52-15.12l18.52,2.62
				C326,323.34,326.4,328.23,321.36,347.41z"/>
			<path style="fill:#FF6300;" d="M378.58,308.11c-1.87,4.89-8.41,12.31-16.81,17.23c-9.14,5.35-20.15,6.05-32.33,4.34
				c-12.18-1.72-19.99-6.45-27.75-14.02c-9.18-8.95-4.24-16.57-4.24-16.57s-0.92-0.32-0.83-3.24c0.1-2.92,5.74-8.47,5.74-8.47
				l59.54-3.99l7.27-0.49c0,0,6.62,2.24,8.96,7.03c2.34,4.79-0.71,10.59-0.71,10.59s0.68,0.28,1.63,4.36
				C379.25,305.72,379.08,306.83,378.58,308.11z"/>
			<path style="fill:none;stroke:#ED430D;stroke-miterlimit:10;" d="M297.45,299.09c0,0,7.024,14.358,33.518,18.597
				c26.494,4.239,46.452-17.167,46.452-17.167"/>
		</g>
		<g>
			<polygon style="fill:#366AA1;" points="186.527,463.569 265.612,476.921 328.266,447.579 294.743,428.007 			"/>
			<polygon style="fill:#254D72;" points="442.166,482.242 328.266,447.579 294.743,428.007 403.718,462.283 			"/>
			<polygon style="fill:#FFF4EC;" points="188.47,462.931 187.189,457.958 293.534,423.098 294.743,428.007 			"/>
			<polyline style="fill:#FFF4EC;" points="429.648,473.296 404.969,460.487 293.534,423.098 			"/>
			<polygon style="fill:#FFF4EC;" points="294.743,428.007 293.534,423.098 404.969,460.487 440.988,479.18 441.211,481.746 
				403.718,462.283 			"/>
		</g>
		<path style="fill:#F4866C;" d="M339.89,456.92c0,0-1.48-1.86-2.6-2.21c0,0,0.83-0.74,2.13-1.21
			C341.15,454.27,339.89,456.92,339.89,456.92z"/>
		<g>
			<path style="fill:#FFD1C9;" d="M339.89,456.92c-3.78,12.01-25.25,31.21-25.25,31.21s-19.34-2.46-26.67-2.75
				s-16.43-2.72-16.43-2.72s-23.1-9.14-26.2-11.13c-3.1-2,0.92-3.49,0.92-3.49l-6.28-2.02c0,0-6.5-3.73,0-6.07
				c6.49-2.35,28,6.07,28,6.07c5.96-0.96,24.81-1.71,24.81-1.71s-8.52-1.06-12.57-2.02c-4.04-0.96-26.51-9.37-27.79-9.8
				c-1.27-0.42-3.4-3.83,3.09-5c6.5-1.17,31.94,5,31.94,5c4.31,0.09,20.39,2.75,28.18,3.91l0.04,0.01c2.59,0.39,4.25,0.61,4.25,0.51
				c0-0.38-0.86-1.98,0-9.84c0.04-0.39,0.1-0.77,0.17-1.13c0-0.02,0.01-0.03,0.01-0.04c1.37-6.76,7.46-7.44,8.66-6.62
				c1.27,0.86,1.03,1.42,1.03,1.42c-0.92,2.94,0.8,9.01,2.52,10.32c1.58,1.21,6.65,5.17,7.46,5.81
				C339.85,456.89,339.89,456.92,339.89,456.92z"/>
			<path style="fill:#FFA796;" d="M339.89,456.92c-2.04,6.47-9.2,15.02-15.37,21.53h-0.01c-5.29,5.59-9.87,9.68-9.87,9.68
				s-19.34-2.46-26.67-2.75s-16.43-2.72-16.43-2.72s-1.11-0.44-2.88-1.15c-3.95-1.58-11.18-4.5-16.62-6.84
				c-3.22-1.38-5.8-2.57-6.7-3.14c-3.1-2,0.92-3.49,0.92-3.49s18.46,6.96,23.5,9.9c5.04,2.94,12.22-1.46,19.93-1.02
				c3.29,0.19,7.7,0.4,12.24,0.56h0.03c6.1,0.22,12.45,0.37,16.66,0.3c5.89-0.1,16.34-12.74,21.16-20.94
				C339.85,456.89,339.89,456.92,339.89,456.92z"/>
			<path style="fill:#FFA796;" d="M292.69,464.3l0.1,0.01l27.54,6.36c0,0-37.13-4.78-47.42-5.2c-0.02,0-0.03,0-0.05,0L292.69,464.3z
				"/>
			<path style="fill:#FF8D78;" d="M301.93,477.48l-22.85,2.36l-10.42,1.67c-3.95-1.58-11.18-4.5-16.62-6.84l17.72,3.27
				c5.04,2.94,12.22-1.46,19.93-1.02C292.98,477.11,297.39,477.32,301.93,477.48z"/>
			<path style="fill:#FF8D78;" d="M324.51,478.45c-5.29,5.59-9.87,9.68-9.87,9.68s-19.34-2.46-26.67-2.75s-16.43-2.72-16.43-2.72
				c3.78,0.19,8.74-1.24,10.23-1.48c1.49-0.25,18.12-0.48,25.71,0C315.08,481.65,315.81,481.05,324.51,478.45z"/>
			<path style="fill:#FFA796;" d="M269.926,477.431c0,0-1.113-1.027-0.685-2.482C269.241,474.949,266.93,475.634,269.926,477.431z"
				/>
			<path style="fill:#FFA796;" d="M319.93,456.92c0-0.38-0.86-1.98,0-9.84c0.04-0.39,0.1-0.77,0.17-1.13
				c-0.35,3.37-0.33,11.2,6.78,13.55l-11.2-3.09C318.27,456.8,319.93,457.02,319.93,456.92z"/>
		</g>
	</g>
	<g>
		<path style="fill:#ED430D;" d="M284.742,254.03c0,0,2.307,1.002,4.868,0.83c2.561-0.172,3.731-5.923,3.731-5.923l-8.039,2.971
			L284.742,254.03z"/>
		<path style="fill:#4E3C31;" d="M379.123,257.092c0,0,2.313,21.173,0.66,21.835c-1.653,0.662-2.425-1.292-2.425-1.292
			s-0.441,2.064-3.198,2.284c-2.757,0.221-3.088-21.761-3.088-21.761L379.123,257.092z"/>
		<path style="fill:#FFD1C9;" d="M377.91,273.34c-2.81,14.42-9.3,23.64-16.56,29.42c-0.03,0.02-0.06,0.04-0.09,0.07
			c-9.48,7.49-20.26,9.15-25.9,8.86c-9.98-0.53-26.66-8.57-36.77-27.49c-5.06-9.48-7.66-20.37-8.98-29.34
			c-1.53-10.45-1.35-18.29-1.35-18.29c0.8-49.34,66.94-53.21,82.48-24.82c2.63,4.81,4.58,9.76,6,14.66
			C383.68,250.43,377.91,273.34,377.91,273.34z"/>
		<path style="fill:#FFA796;" d="M377.91,273.34c-2.81,14.42-9.3,23.64-16.56,29.42c0.04-0.04,0.08-0.07,0.12-0.11
			c17.49-15.34,9.6-47.73,9.6-47.73c-16.33,1.21-51.439-6.038-52.329-6.288c7.18,4.8,28.32,10.003,28.32,10.003
			c-9.99,0-35.581-8.243-35.581-8.243l-21.871,4.467c-1.53-10.45-1.35-18.29-1.35-18.29l21.07-12.59l67.41,2.43
			C383.68,250.43,377.91,273.34,377.91,273.34z"/>
		<path style="fill:#4E3C31;" d="M380.154,239.579c0,0-2.28,15.898-2.05,23.847c0,0-4.371-5.38-5.548-20.51l-1.258-11.879
			L380.154,239.579z"/>
		<path style="fill:#4E3C31;" d="M289.688,235.25c13.357,10.504,34.116,21.588,62.456,21.903c0,0-35.829-4.164-55.358-25.06
			c0,0,24.641,22.195,82.345,21.703c0,0-3.026-22.278-20.337-33.11l-18.132-24.048C340.662,196.638,277.501,225.666,289.688,235.25z
			"/>
		<path style="fill:#FF6300;" d="M381.67,233.84l-94.41,12.37c0,0-6.19-8.34,3.44-35.04c9.45-26.2,30.57-37.89,58.72-34.5
			c0.53,0.06,1.06,0.13,1.59,0.2c22.63,3.14,28.7,38.16,30.2,51.68C381.57,231.83,381.67,233.84,381.67,233.84z"/>
		<path style="fill:#ED430D;" d="M288.26,236.57c0,0,14.624-16.489,50.824-21.498c36.2-5.009,36.2-5.009,36.2-5.009l0.442,13.119
			L288.26,236.57"/>
		<path style="fill:#ED430D;" d="M381.21,228.55l-3.04,0.83l-10.68-3.19c0,0-1.41-35.31-18.07-49.52c0.53,0.06,1.06,0.13,1.59,0.2
			C373.64,180.01,379.71,215.03,381.21,228.55z"/>
		<path style="fill:#FF6300;" d="M388.47,235.23c0.11,4.15-4.67,4.11-4.67,4.11s-7.72,0.47-18.63,1.4
			c-15.78,1.34-38.26,3.65-53.79,6.93c-26.26,5.55-25.51,6.39-25.51,6.39c-3.54,0.64-2.38-4.72-3.29-6.94
			c-0.91-2.22-1.51-1.78-2.27-3.81c-1.34-3.61,0.76-5.44,0.76-5.44c42.92-25.32,104.83-19.34,106.06-16.19
			c0.18,0.46,0.29,0.9,0.34,1.31c0.35,2.39-1.1,4-0.95,5.79C386.69,230.88,388.37,231.07,388.47,235.23z"/>
		<path style="fill:#FFA796;" d="M377.384,242.535c0,0,6.309-7.887,11.567-3.418c5.258,4.469,5.464,24.22-9.676,25.709
			C372.32,265.511,377.384,242.535,377.384,242.535z"/>
		<path style="fill:#ED430D;" d="M388.47,235.23c0.11,4.15-4.67,4.11-4.67,4.11s-7.72,0.47-18.63,1.4
			c-1.06-2.53-3.16-5.51-7.19-5.51c-6.98,0-55.41,0.59-67.92,8.18c0.57-0.38,19.1-12.58,76.49-14.03c0,0,3.89-4.21,1.9-8.71
			l19.02,2.32c0.35,2.39-1.1,4-0.95,5.79C386.69,230.88,388.37,231.07,388.47,235.23z"/>
		<path style="fill:#FF8D78;" d="M377.916,251.005c0,0,0.355-9.853,6.986-10.091c6.631-0.238,6.279,9.482,3.79,14.246
			c-3.196,6.118-8.538,6.347-8.538,6.347s8.893-2.641,9.041-12.465C389.331,239.955,380.793,239.453,377.916,251.005z"/>
		<path style="fill:#FF8D78;" d="M383.488,244.831c-2.97-0.833-4.441,1.379-4.441,1.379v1.427c0,0,3.069-2.221,4.617-0.005
			c0.886,1.268,0.48,3.025-0.76,3.95c-1.21,0.903-2.482,2.497-1.916,5.042c0,0-0.162-3.226,3.528-4.037
			C384.516,252.587,386.458,245.664,383.488,244.831z"/>
	</g>
	<g>
		<path style="fill:#FE6900;" d="M328.011,280.859c-0.529-0.464-2.4-0.15-2.749,0.462c-0.37,0.649-1.031,10.755,0.828,13.304
			c0.823,1.129,2.014,1.591,3.05,1.372c1.051-0.133,2.025-0.958,2.435-2.294C332.499,290.687,328.572,281.351,328.011,280.859z"/>
		<path style="fill:#813626;" d="M339.235,260.638l0.22,3.456c0,0,6.059-1.853,9.428-2.055c5.995-0.359,8.356,0.315,8.356,0.315
			S355.085,256.781,339.235,260.638z"/>
		<path style="fill:#813626;" d="M313.399,264.192l0.573,3.415c0,0-6.321-0.424-9.648,0.148c-5.919,1.017-8.064,2.21-8.064,2.21
			S297.087,264.048,313.399,264.192z"/>
		<path style="fill:#634023;" d="M349.118,274.46c0.312,1.859-0.147,3.486-1.027,3.634c-0.879,0.148-1.845-1.24-2.157-3.099
			c-0.312-1.859,0.147-3.486,1.026-3.634C347.84,271.214,348.806,272.601,349.118,274.46z"/>
		<path style="fill:#634023;" d="M311.506,279.625c0.312,1.859-0.147,3.486-1.027,3.634c-0.879,0.148-1.845-1.24-2.157-3.099
			c-0.312-1.859,0.147-3.486,1.026-3.633C310.228,276.378,311.194,277.766,311.506,279.625z"/>
		
			<line style="fill:none;stroke:#FE6900;stroke-width:1.08;stroke-miterlimit:10;" x1="329.312" y1="304.393" x2="335.784" y2="303.709"/>
	</g>
</g>
</svg>
